<svg id="Layer_1" data-name="Layer 1" xmlns="http://www.w3.org/2000/svg" viewBox="0 0 421.46 62.34">
  <defs><style>.cls-1{fill:#1c2147;}.cls-2{fill:#1571fa;}.cls-3{fill:#93c5fe;}</style></defs>
  <title>01_full</title>
  <path class="cls-1" d="M51.39,0V61.44H40.17L13.44,22.77H13V61.44H0V0H11.4L37.92,38.64h.54V0Z"/><path class="cls-1" d="M58.72,61.44V0H99.39V10.71H71.71V25.35h25V36.06h-25V61.44Z"/><path class="cls-1" d="M105.78,10.71V0h50.46V10.71H137.43V61.44H124.59V10.71Z"/><path class="cls-1" d="M159.54,61.44V15.36h12.39v8h.48a12,12,0,0,1,4.23-6.5,11.17,11.17,0,0,1,6.84-2.2,19.33,19.33,0,0,1,2.07.12,14.58,14.58,0,0,1,1.95.33V26.49A16.7,16.7,0,0,0,185,26a22.37,22.37,0,0,0-2.91-.21,10.26,10.26,0,0,0-5,1.21,9,9,0,0,0-3.48,3.38,9.61,9.61,0,0,0-1.27,5V61.44Z"/><path class="cls-1" d="M205.52,62.31a19,19,0,0,1-7.86-1.55,12.44,12.44,0,0,1-5.45-4.59,13.58,13.58,0,0,1-2-7.6,13.43,13.43,0,0,1,1.41-6.45,11.42,11.42,0,0,1,3.84-4.2,18.57,18.57,0,0,1,5.53-2.4,41.74,41.74,0,0,1,6.53-1.14q4-.42,6.48-.8a9.06,9.06,0,0,0,3.56-1.12,2.51,2.51,0,0,0,1.11-2.22v-.18a5.54,5.54,0,0,0-1.78-4.41,7.43,7.43,0,0,0-5.05-1.56,9,9,0,0,0-5.49,1.51,7.12,7.12,0,0,0-2.7,3.8l-11.82-1a16.18,16.18,0,0,1,3.54-7.28,17.15,17.15,0,0,1,6.82-4.74,26.16,26.16,0,0,1,9.71-1.66,29.62,29.62,0,0,1,7.36.9,19.42,19.42,0,0,1,6.27,2.79,13.62,13.62,0,0,1,4.33,4.84,14.73,14.73,0,0,1,1.59,7.07V61.44H219.34V55.05H219a12.79,12.79,0,0,1-3,3.79,13.49,13.49,0,0,1-4.47,2.55A18.2,18.2,0,0,1,205.52,62.31Zm3.66-8.82a10.66,10.66,0,0,0,5-1.13,8.67,8.67,0,0,0,3.38-3A7.89,7.89,0,0,0,218.77,45V40.08a6.5,6.5,0,0,1-1.63.7c-.69.21-1.47.4-2.33.57s-1.71.32-2.57.45l-2.34.35A15.81,15.81,0,0,0,206,43.2a6.33,6.33,0,0,0-2.61,1.93,4.83,4.83,0,0,0-.93,3,4.57,4.57,0,0,0,1.9,4A8.13,8.13,0,0,0,209.18,53.49Z"/><path class="cls-1" d="M255,62.18a17.23,17.23,0,0,1-9.49-2.71,18.48,18.48,0,0,1-6.72-8,30.58,30.58,0,0,1-2.48-13,30.2,30.2,0,0,1,2.55-13.19,18.38,18.38,0,0,1,6.8-7.89A17.35,17.35,0,0,1,255,14.76a14.34,14.34,0,0,1,6.47,1.3,12.87,12.87,0,0,1,4.2,3.24,16.93,16.93,0,0,1,2.44,3.8h.39V0h12.75V61.44h-12.6V54.06h-.54a16.37,16.37,0,0,1-2.53,3.79A12.78,12.78,0,0,1,261.31,61,14.69,14.69,0,0,1,255,62.18ZM259,52a8.2,8.2,0,0,0,5.24-1.7,10.68,10.68,0,0,0,3.3-4.75,20.27,20.27,0,0,0,1.15-7.17,20.26,20.26,0,0,0-1.14-7.14,10.25,10.25,0,0,0-3.3-4.68A8.39,8.39,0,0,0,259,24.93a8.29,8.29,0,0,0-5.31,1.71,10.46,10.46,0,0,0-3.27,4.74,20.36,20.36,0,0,0-1.11,7,20.56,20.56,0,0,0,1.13,7.09,10.7,10.7,0,0,0,3.27,4.8A8.17,8.17,0,0,0,259,52Z"/><path class="cls-1" d="M311,62.34a24.45,24.45,0,0,1-12.23-2.9,19.57,19.57,0,0,1-7.87-8.22,27.06,27.06,0,0,1-2.76-12.61,26.94,26.94,0,0,1,2.76-12.48,20.36,20.36,0,0,1,7.78-8.37,22.61,22.61,0,0,1,11.81-3,24.36,24.36,0,0,1,8.5,1.45,19.18,19.18,0,0,1,6.9,4.37,19.87,19.87,0,0,1,4.61,7.3,29.21,29.21,0,0,1,1.65,10.28v3.51H293.23V33.75h26.88a9.79,9.79,0,0,0-1.2-4.89,8.76,8.76,0,0,0-3.32-3.35,9.65,9.65,0,0,0-4.9-1.21,9.85,9.85,0,0,0-5.15,1.33,9.56,9.56,0,0,0-3.49,3.57,10.19,10.19,0,0,0-1.29,5V41.7A12.82,12.82,0,0,0,302,47.61a9.14,9.14,0,0,0,3.62,3.84,10.92,10.92,0,0,0,5.55,1.35,12.09,12.09,0,0,0,3.9-.6,8.09,8.09,0,0,0,3-1.8,7.83,7.83,0,0,0,1.92-2.94l11.82.78a16.1,16.1,0,0,1-3.68,7.42,18.46,18.46,0,0,1-7.14,4.92A26.8,26.8,0,0,1,311,62.34Z"/><path class="cls-2" d="M421.39,61.05,397.07,18.93a.57.57,0,0,0-1,0L371.77,61.05a.56.56,0,0,0,.72.79l23.86-10.47a.53.53,0,0,1,.46,0l23.86,10.47A.56.56,0,0,0,421.39,61.05Z"/><path class="cls-3" d="M395.72,1.22,371.4,43.34a.57.57,0,0,1-1,0L346.11,1.22a.56.56,0,0,1,.71-.8L370.69,10.9a.51.51,0,0,0,.45,0L395,.42A.57.57,0,0,1,395.72,1.22Z"/>
</svg>