<svg xmlns="http://www.w3.org/2000/svg" viewBox="0 0 134.74 96.65"><defs><style>.cls-1{fill:#d231ff;}.cls-2{fill:none;}.cls-2,.cls-3,.cls-4{stroke:#231f20;stroke-miterlimit:10;}.cls-3{fill:#ed1eff;}.cls-4{fill:#ac529e;}</style></defs><g id="Layer_2" data-name="Layer 2"><g id="Layer_17" data-name="Layer 17"><path class="cls-1" d="M69.25,90.77c0-.06.31-.51.1-.2s.06,0,.1-.09.09-.08,0,0a1.19,1.19,0,0,1-.91.3c-.16,0-.47-.06-.13,0a3.79,3.79,0,0,0,3.11-.77l3.84-2.61c1.21-.82,2.46-1.62,3.63-2.51a17,17,0,0,0,3.59-3.7,2.51,2.51,0,0,0-.89-3.42,2.56,2.56,0,0,0-3.42.89l-.14.19c.13-.16.14-.17,0,0l-.3.36c-.23.27-.48.53-.73.78s-.52.47-.79.7.26-.18-.07.07l-.51.37c-1.24.88-2.52,1.72-3.78,2.58L70.12,85l-1,.65-.53.36c-.31.21-.61.24.29.1,1.22-.2.13-.21-.26-.23a1.82,1.82,0,0,0-.33,0,3.53,3.53,0,0,0-1.64.5,5.66,5.66,0,0,0-1.76,1.91,2.53,2.53,0,0,0,.9,3.42,2.56,2.56,0,0,0,3.42-.9Z"/><path class="cls-1" d="M67.7,86.9a8.35,8.35,0,0,0-3.2-2.47A2.5,2.5,0,1,0,62,88.74l.08.05,0,.08,2.16-3.77c-.21,0-.31,0-.06,0-.15,0-.31-.13-.08,0a4.64,4.64,0,0,1-.42-.25c.22.14,0,0-.11-.1-.54-.48-1-1-1.6-1.46s-1.33-1-2-1.5c.19.15-.09-.08-.13-.11l-.42-.34c-.32-.26-.62-.52-.93-.79a62.66,62.66,0,0,1-6.07-6.34,2.51,2.51,0,0,0-3.54,0,2.56,2.56,0,0,0,0,3.53,59.56,59.56,0,0,0,6.69,6.88c.68.57,1.38,1.12,2.09,1.65l.81.59c.08.07.54.47.76.68,1.42,1.35,2.92,2.57,5,2.54a2.52,2.52,0,0,0,2.16-3.76,5.6,5.6,0,0,0-1.93-1.91L62,88.74c.22.1.45.2.66.32s.67.44.57.35a11.39,11.39,0,0,1,1,1,2.5,2.5,0,0,0,3.53,0,2.56,2.56,0,0,0,0-3.53Z"/><path class="cls-1" d="M67.32,9.83c3.22,0,3.22-5,0-5s-3.22,5,0,5Z"/><path class="cls-1" d="M65.53,5.54c-.11.12-.52.4-.17.18l-.58.34c-.4.2-.81.37-1.23.56A19.11,19.11,0,0,0,60.91,8a20.49,20.49,0,0,0-4.72,4.19l4.18,2.43.22-1.24a2.54,2.54,0,0,0-.9-2.62,2.45,2.45,0,0,0-2.77-.2,28,28,0,0,0-6.45,6.72,2.51,2.51,0,0,0,.9,3.42,2.56,2.56,0,0,0,3.42-.89l.58-.83c.18-.24.2-.27.07-.1l.31-.39q.57-.69,1.17-1.32c.41-.43.83-.84,1.27-1.24.25-.23.5-.45.76-.66s.26-.22.4-.32c-.18.13-.15.11.09-.07l-3.67-2.83-.22,1.24a2.57,2.57,0,0,0,1.15,2.82,2.52,2.52,0,0,0,3-.39,18,18,0,0,1,2-2.1l.55-.47c.42-.37-.16.09.26-.21s.85-.6,1.3-.88c1.72-1.05,3.78-1.55,5.23-3a2.5,2.5,0,0,0-3.54-3.54Z"/><path class="cls-1" d="M66.54,9c1,1.66,2.62,2,4.28,2.72-.16-.07-.36-.14-.09,0,.45.21-.26-.32.17.11s.54.58.83.85a16,16,0,0,0,2.48,1.77q.5.31,1,.66l.48.35.32.24.31.24.55.46c.3.26.59.53.88.8.58.55,1.14,1.12,1.67,1.71.29.33.57.66.85,1,0,.06.37.48.12.15.15.19.29.39.43.58a2.5,2.5,0,1,0,4.31-2.53,31.05,31.05,0,0,0-7.59-7.45c-.68-.47-1.41-.86-2.08-1.35-.14-.1-.13-.09,0,0l-.19-.17-.5-.52a7.41,7.41,0,0,0-1.2-1,9,9,0,0,0-2.13-.94l-.54-.19c-.45-.15.29.13,0,0s-.4-.32,0,.06c-.36-.34.23.44,0,0A2.5,2.5,0,1,0,66.54,9Z"/><path class="cls-1" d="M82.58,17.15Q67,16.73,51.41,16.53c-3.22-.05-3.22,4.95,0,5q15.59.21,31.17.62c3.22.09,3.22-4.91,0-5Z"/><path class="cls-1" d="M53.51,21.29A51.51,51.51,0,0,1,64.7,18a13.5,13.5,0,0,1,5.07.06,47.9,47.9,0,0,1,5.85,2.29,2.51,2.51,0,0,0,2.82-1.15,2.54,2.54,0,0,0-.39-3c-2.09-2.1-4.55-4.38-7.3-5.56-3.26-1.4-6.46-.22-9.49,1.18a2.52,2.52,0,0,0-.89,3.42,2.56,2.56,0,0,0,3.42.9c1.85-.86,3.75-1.71,5.65-.57a27.4,27.4,0,0,1,5.08,4.16L77,15.53a36.84,36.84,0,0,0-6.26-2.39,18.53,18.53,0,0,0-6-.14,53.53,53.53,0,0,0-12.52,3.47,2.56,2.56,0,0,0-1.74,3.07,2.52,2.52,0,0,0,3.07,1.75Z"/><path class="cls-1" d="M83.57,80.06a2.53,2.53,0,0,1,.62-1.12l-4.27-1.77v.09c-.81,2.53,2.42,4,4.18,2.43A7.1,7.1,0,0,0,86,76.77c.72-1.85-1.39-3.52-3.08-3.07-4.75,1.25-9.78,1-14.63.55-5.13-.42-10.24-1.11-15.39-1.26a2.52,2.52,0,0,0-2.16,3.76c1.13,2.13,4,3.31,6.21,4a22.43,22.43,0,0,0,4,.63,13.75,13.75,0,0,1,3.32,1,17.81,17.81,0,0,0,7,1.8,6.63,6.63,0,0,0,3.35-1.32,14.15,14.15,0,0,1,3.19-1.39l-2.43-4.18c-1.84,1.93-5.13,1.54-7.45,2.36a8.37,8.37,0,0,0-1.84.93,4.33,4.33,0,0,1-1.3.78c-1,.24-2.2-.62-3-1.09L60.47,85c1.48-.17,3,.74,4.39,1.19a40.08,40.08,0,0,0,4.59,1.17,2.55,2.55,0,0,0,3.07-1.74,2.52,2.52,0,0,0-1.74-3.08,41.13,41.13,0,0,1-5-1.31C64,80.62,62.34,79.75,60.47,80a2.62,2.62,0,0,0-2.41,1.84,2.54,2.54,0,0,0,1.15,2.82,11,11,0,0,0,5,1.78A6,6,0,0,0,67,85.85c.73-.34,1.32-.87,2-1.24,1.42-.75,3.34-.64,4.88-1.12a11.16,11.16,0,0,0,4.92-2.63c1.66-1.75,0-4.93-2.43-4.18a23.06,23.06,0,0,0-3.11,1.22c-.43.21-.86.44-1.27.68a6.17,6.17,0,0,1-1,.67,6.5,6.5,0,0,1-2.21-.45,22.56,22.56,0,0,1-2.85-1,19.28,19.28,0,0,0-2.84-1,31.35,31.35,0,0,0-3.33-.46,8.85,8.85,0,0,1-2.57-.76c-.63-.29-1.87-.69-2.19-1.29L52.92,78c10.32.29,21.14,3.22,31.35.53L81.2,75.44a1.92,1.92,0,0,1-.64.72l4.18,2.43a3.44,3.44,0,0,0,.18-1.42c-.15-2-2.69-3.46-4.27-1.77a8.16,8.16,0,0,0-1.9,3.33c-.92,3.09,3.91,4.41,4.82,1.33Z"/><path class="cls-1" d="M78.6,80.22c14.16,0,14.18-22,0-22s-14.18,22,0,22Z"/><path class="cls-1" d="M90.56,70.85l-.71.76A11,11,0,0,0,74.3,56.05a18.65,18.65,0,0,0-4.6,7.78l21.22,5.85a10.92,10.92,0,0,1,1-2.78l-3.94,3.95.37-.18-5.55,1.5C95,71.33,96.58,56.3,95.92,46.52c-.39-5.92-4.77-11-11-11-5.65,0-11.4,5-11,11a46.27,46.27,0,0,1-.29,7.16c-.09,1-.29,1.77,0,.35-.18.85-1.57,3.94-.1,1.57L83,50.15c-8,.55-11.5,6.58-13.34,13.68a11,11,0,1,0,21.22,5.85l-1.07,1.93L74.3,56.05a15,15,0,0,0-2.73,3.7c-2.59,5.34-1.46,11.88,3.94,15,4.83,2.82,12.45,1.42,15-4Z"/><path class="cls-1" d="M95.35,47.92C98.87,36.68,90.1,24.21,83.09,16.3l3.22,7.78,0-.52-3.22,7.78.32-.35L65,26.13a12.26,12.26,0,0,0,4.38,7.5c3.59,2.77,7.55,4.24,12,2.28,3.65-1.61,7.23-5.73,6.76-10.06l-.06-.52c-.63-5.9-4.59-11-11-11-5.45,0-11.64,5.06-11,11l.06.52,18.78-7.78,1.27,2.21C85,12.11,73,9.73,67.83,15.43A11.84,11.84,0,0,0,64.5,25.54a12.11,12.11,0,0,0,3,6.32s2.17,2.45,1.06,1.07a54.9,54.9,0,0,1,3.69,4.94,25,25,0,0,1,1.21,3.7l.4,1.25q.72,2.93.25-.74c-4.24,13.54,17,19.33,21.21,5.84Z"/><path class="cls-1" d="M57.15,37c14.15,0,14.18-22,0-22S43,37,57.15,37Z"/><path class="cls-1" d="M55.06,40.17c14.16,0,14.18-22,0-22s-14.18,22,0,22Z"/><path class="cls-1" d="M44.7,25.32c1.49-1.88,1.6-2,.34-.39A6.68,6.68,0,0,0,44,26.41a30,30,0,0,0-1.86,4.31,38.42,38.42,0,0,0-2.31,6.1,20,20,0,0,0-.43,4c-.07,3.47.17-1.11,0,.92a42.14,42.14,0,0,0-.24,9.65c.72,5.9,4.54,11,11,11,5.38,0,11.72-5.06,11-11a29.46,29.46,0,0,1,.26-10.57c-.4,2,1.26-2.47,1.41-2.94,1-2.18.65-1.79-1,1.15a6.65,6.65,0,0,0,1.89-2.62c2.36-5.45,1.61-11.8-4-15-4.65-2.72-12.67-1.53-15,3.95Z"/><path class="cls-1" d="M39.08,51.35c-.51,4.19.65,8.93,2.09,12.9a29.7,29.7,0,0,0,2.73,5.82c.52.81,1.15,1.56,1.71,2.35.15.22,1.44,2.27.86.87,2.26,5.49,7.3,9.4,13.53,7.68,5.19-1.42,10-8,7.69-13.53-1.48-3.58-3.62-6.14-5.4-9.46.2.81.11.57-.3-.73-.23-.78-.45-1.56-.66-2.35a6.24,6.24,0,0,1-.25-3.55c.72-5.91-5.57-11-11-11-6.54,0-10.27,5.07-11,11Z"/><path class="cls-1" d="M55.65,79c14.15,0,14.18-22,0-22s-14.18,22,0,22Z"/><path class="cls-1" d="M74.17,75.5a67.62,67.62,0,0,0,5.74-21.62c.22-2.89-.57-7.17-.77-9-.38-3.48-.25-6.9-1.51-10.25C75.55,29.12,70.2,25.32,64.1,27c-5.34,1.46-9.78,7.94-7.68,13.53A35.72,35.72,0,0,1,58,52.14a23.87,23.87,0,0,1-1.13,5.72c-.49,1.84-1.35,5.75-1.71,6.54-2.43,5.42-1.56,11.83,3.95,15,4.7,2.75,12.6,1.5,15.05-4Z"/><path class="cls-1" d="M68.94,65.64a25,25,0,0,0-1.54-8.12c-.36-1-.78-1.92-1.13-2.9-.25-.71-1-4-.53-.8-.39-3-1-5.53-3.22-7.78a11.19,11.19,0,0,0-7.78-3.22c-5.33.24-11.79,4.89-11,11a32.5,32.5,0,0,0,1.88,8.1c.37,1,.78,1.92,1.08,2.91a14.47,14.47,0,0,1,.4,1.47c-.16-1.68-.22-1.9-.16-.66.13,5.75,5,11.27,11,11,5.85-.26,11.13-4.84,11-11Z"/></g><g id="Layer_16" data-name="Layer 16"><circle class="cls-2" cx="48.33" cy="48.33" r="47.83"/><circle class="cls-2" cx="86.41" cy="48.33" r="47.83"/><polygon class="cls-3" points="58.29 62.44 85.77 34.77 88.04 28.11 81.48 30.5 54 58.18 60.22 64.37 58.19 66.41 54.05 62.29 49.91 58.18 51.93 56.13 58.29 62.44"/><line class="cls-4" x1="48.33" y1="68.06" x2="54.05" y2="62.29"/></g></g></svg>