<svg xmlns="http://www.w3.org/2000/svg" viewBox="0 0 133.56 110.17"><defs><style>.cls-1,.cls-7{fill:none;}.cls-1,.cls-2{stroke:#58595b;stroke-dasharray:2 2;}.cls-1,.cls-2,.cls-6,.cls-7{stroke-linecap:round;stroke-miterlimit:10;}.cls-2{fill:#58595b;}.cls-3{fill:#4f95ff;}.cls-4{fill:#00d1ff;}.cls-5{fill:#1abdff;}.cls-6{fill:#46b8e9;}.cls-6,.cls-7{stroke:#231f20;}</style></defs><g id="Layer_2" data-name="Layer 2"><g id="Layer_2-2" data-name="Layer 2"><line class="cls-1" x1="15.33" y1="59.78" x2="19.18" y2="37.61"/><line class="cls-1" x1="22.33" y1="36.61" x2="46.68" y2="47.96"/><line class="cls-1" x1="17.5" y1="61.96" x2="46.15" y2="61.96"/><line class="cls-1" x1="15.33" y1="64.13" x2="23.5" y2="103.36"/><line class="cls-1" x1="25.76" y1="104.07" x2="47.82" y2="83.75"/><line class="cls-1" x1="21.91" y1="105.45" x2="4.52" y2="94.28"/><line class="cls-1" x1="3.37" y1="91.1" x2="13.97" y2="63.64"/><line class="cls-1" x1="4.52" y1="92.03" x2="46.68" y2="74.31"/><line class="cls-1" x1="101.11" y1="5.79" x2="106.34" y2="14.87"/><line class="cls-1" x1="98.64" y1="5.79" x2="87.35" y2="29.2"/><line class="cls-1" x1="97.7" y1="4" x2="62.02" y2="2.57"/><line class="cls-1" x1="59.85" y1="4.74" x2="64.41" y2="24.34"/><line class="cls-1" x1="124.48" y1="106.37" x2="108.76" y2="107.39"/><line class="cls-1" x1="105.24" y1="105.7" x2="93.22" y2="89.37"/><line class="cls-1" x1="124.59" y1="104.07" x2="99.12" y2="83.75"/><line class="cls-1" x1="126.95" y1="103.56" x2="130.89" y2="78.02"/><line class="cls-1" x1="128.92" y1="74.93" x2="100.01" y2="68.31"/><line class="cls-1" x1="107.95" y1="105.7" x2="129.35" y2="77.37"/><line class="cls-2" x1="106.34" y1="18.8" x2="94.2" y2="35.78"/></g><g id="Layer_11" data-name="Layer 11"><path class="cls-3" d="M75.28,106.56,99.15,83.37c1.68-1.62.29-4.07-1.77-4.27s-3.92-.39-5.89-.55a7.26,7.26,0,0,0-5.07,1.06l3.76,2.16-.06-.63a2.54,2.54,0,0,0-4.27-1.77L77,87.76l-2.13,2-1.06,1-.49.46c-.26.21-.15.2.35,0a11.4,11.4,0,0,1-1.26-.74,15.56,15.56,0,0,1-1.73-1.81,88.5,88.5,0,0,0-7.85-7.52,7.21,7.21,0,0,0-2.51-1.89,6.17,6.17,0,0,0-3.15.5c-2,.57-3.91,1.22-5.83,1.93a2.53,2.53,0,0,0-1.1,4.18,58.11,58.11,0,0,0,5.44,5.2,13.58,13.58,0,0,1,2.5,2.16,12.12,12.12,0,0,0,2.66,3.1c3.75,2.69,6.37,6.56,10.14,9.23,1.38,1,3.23-.08,3.68-1.49a9.43,9.43,0,0,0-.14-6.16,11,11,0,0,0-3.76-4.76,46.29,46.29,0,0,1-4.24-4.28,30.9,30.9,0,0,0-5.2-4c-2.7-1.76-5.21,2.57-2.52,4.32a24.85,24.85,0,0,1,3.88,2.88c1.26,1.22,2.29,2.66,3.61,3.82,1.11,1,2.51,1.74,3.25,3a4.58,4.58,0,0,1,.3,3.76l3.67-1.5A31.4,31.4,0,0,1,69,96.85a37.92,37.92,0,0,0-5.26-4.62A11,11,0,0,1,61.94,90a16.2,16.2,0,0,0-2.73-2.43,58.06,58.06,0,0,1-5.44-5.2l-1.1,4.18q3.77-1.4,7.65-2.43l-2.43-.64c2.54,2.26,5.18,4.46,7.56,6.91,2.11,2.17,4,5.07,7.16,5.74,2,.42,3.38-.48,4.74-1.76l3.89-3.69,8.15-7.72-4.27-1.77.06.63c.16,1.66,2.09,3.42,3.76,2.16,1-.74,2.3-.41,3.46-.3l5,.47-1.76-4.26L71.74,103c-2.31,2.24,1.23,5.78,3.54,3.53Z"/><path class="cls-3" d="M62.42,85.25a7.36,7.36,0,0,0-4.1-2.2,2.54,2.54,0,0,0-3,1.45,2.5,2.5,0,0,0,1,3.12q5.74,3.45,11.2,7.34c1.74,1.24,3.41,2.57,5.25,3.65A7.06,7.06,0,0,0,75.7,99.8c1.21.1,1.86-.48,2.86-1l-1.26.34.28,0-1.77-4.27A12.43,12.43,0,0,1,73.08,97l2.52,4.32A14.67,14.67,0,0,0,79.81,97,22.44,22.44,0,0,1,83,92.86a39.42,39.42,0,0,1,4-4.06,21.45,21.45,0,0,1,4.78-2.59,2.52,2.52,0,0,0,.9-3.42,2.57,2.57,0,0,0-3.42-.9,25.69,25.69,0,0,0-4.94,2.69,34.78,34.78,0,0,0-4.24,4.08A32.9,32.9,0,0,0,76.37,93c-.47.73-.82,1.55-1.34,2.24a9.55,9.55,0,0,1-2,1.75,2.58,2.58,0,0,0-.9,3.42,2.55,2.55,0,0,0,3.42.9,17.52,17.52,0,0,0,3.74-2.9c1.4-1.42.49-4.5-1.76-4.27a4.21,4.21,0,0,0-1.67.43c-.12.07-.71.39-.54.36H76.7c-1.42-.24-3-1.7-4.15-2.53-1.45-1-2.89-2.1-4.35-3.12q-4.55-3.15-9.29-6L57,87.87a2.91,2.91,0,0,1,1.9.92c2.24,2.31,5.78-1.23,3.53-3.54Z"/><path class="cls-3" d="M50.14,81.8l-1.72.4A1,1,0,0,0,48.18,84a1.14,1.14,0,0,0,.77.1l1.72-.4a1,1,0,0,0,.6-.46,1,1,0,0,0,.1-.77,1,1,0,0,0-.46-.6,1.08,1.08,0,0,0-.77-.1Z"/><path class="cls-3" d="M48.16,83.94l.64.17a4.23,4.23,0,0,1,.58.17l-.24-.11.18.11-.2-.16a1.55,1.55,0,0,1,.21.23l-.16-.21.48.64.86-1.51a2.54,2.54,0,0,1-.39,0l.27,0-.21,0,.24.1-.11-.06.21.15a.24.24,0,0,1-.09-.08l.16.2a.16.16,0,0,1,0-.07A1.1,1.1,0,0,0,50,83a1.08,1.08,0,0,0-.77.1,1,1,0,0,0-.36,1.37,1.69,1.69,0,0,0,1.69.77,1,1,0,0,0,1-1,1,1,0,0,0-.13-.5L51,83.21a2.13,2.13,0,0,0-.75-.74A8,8,0,0,0,48.69,82a1,1,0,0,0-.77.1,1,1,0,0,0-.36,1.37,1,1,0,0,0,.6.46Z"/><path class="cls-3" d="M99.85,79.78c.08-1-.35-2.06-.29-3.07a16.56,16.56,0,0,0,.62-2.3c0-2.54-.57-4.83-.11-7.42.8-4.4-5.94-6.29-6.75-1.86-.5,2.76-1.11,6.38-.18,9.12.32,1,.43-.77,0,0a4.33,4.33,0,0,0-.5,2c-.07,1.19.35,2.34.26,3.53-.33,4.49,6.67,4.47,7,0Z"/><path class="cls-3" d="M100.1,63.61c-.14-5.52.55-11.14-.53-16.62-1.13-5.72-6.93-3.14-10.71-2-4.28,1.35-2.45,8.11,1.87,6.75,1.2-.38,2.46-.46,3.65-.82.74-.22,1.45-.76,2.17-.95l-3.41-.9c-.5-.89-.59-.71-.29.56.07.75.13,1.49.19,2.23.08,1,.19,2,.21,3,.07,2.89-.22,5.79-.15,8.69.11,4.5,7.11,4.51,7,0Z"/><path class="cls-3" d="M87.63,48.24a1.5,1.5,0,0,0,0-3,1.5,1.5,0,0,0,0,3Z"/><path class="cls-3" d="M95.28,44.65a9.24,9.24,0,0,0,2.1-.29,8.6,8.6,0,0,0,.9-.29l.61-.26.22-.1.12-.06a.77.77,0,0,1-.92-.16l-.26-.44c0,.09,0,.05,0-.12a.78.78,0,0,1,0,.14,2.46,2.46,0,0,1,0,.28c0,.18,0,.37,0,.55a2.64,2.64,0,0,1,0,.28.61.61,0,0,1,0,.27c0-.15,0-.17,0-.06s0,.09,0,.14L98,44.8c-.07.32-.2.62-.26,1a1.52,1.52,0,0,0,.4,1.49,1,1,0,1,0,1.41-1.42c-.07-.06,0,0,.07.1s.08.22,0,.12c0,.19,0,.23,0,.12s0-.06,0,.12c0-.14.07-.28.11-.41a5.93,5.93,0,0,0,.24-1,7.23,7.23,0,0,0,.1-1.31,2.15,2.15,0,0,0-.38-1.49,1.18,1.18,0,0,0-1.12-.29A3.66,3.66,0,0,0,98,42a2.72,2.72,0,0,1-.25.11l0,0-.12,0-.48.16a9.41,9.41,0,0,1-1,.24l-.13,0h.06a1.06,1.06,0,0,1-.27,0,4.89,4.89,0,0,1-.54,0,1,1,0,0,0,0,2Z"/><path class="cls-3" d="M86.73,51.28l0,.11-.09-.67a2,2,0,0,1,0,.54l.09-.66a12.45,12.45,0,0,0-.31,1.94c0,.49.1,1,.11,1.47,0,1,0,2.05,0,3.08a2.5,2.5,0,1,0,5,0l0-2.49a10.29,10.29,0,0,0,0-1.11,7.36,7.36,0,0,1-.06-1.24l-.09.66c0-.31.14-.62.19-.93a5,5,0,0,0,0-2,2.5,2.5,0,1,0-4.82,1.33Z"/><path class="cls-3" d="M86.33,58.73c.19,1.53-.1,3.11,0,4.65.07,1.8.15,3.6.22,5.4s.23,3.59.25,5.39-.32,3.3-.18,5a2.53,2.53,0,0,0,3.76,2.16c4.69-2.89,4.74-8.44,4.72-13.35,0-2.44-.16-4.9-.09-7.34.08-2.78.71-5.5.47-8.29a2.57,2.57,0,0,0-2.5-2.5,2.52,2.52,0,0,0-2.5,2.5,44.37,44.37,0,0,1-.4,7.1c-.17,2.19,0,4.39,0,6.57a48.79,48.79,0,0,1-.11,7A5.31,5.31,0,0,1,87.81,77l3.77,2.16c-.14-1.66.21-3.3.18-5s-.17-3.6-.25-5.39-.15-3.6-.22-5.4c-.06-1.54.23-3.13,0-4.65a2.58,2.58,0,0,0-2.5-2.5,2.51,2.51,0,0,0-2.5,2.5Z"/><path class="cls-4" d="M46.62,61.52q.08,8.88.38,17.74a2.53,2.53,0,0,0,3.17,2.41l6-1.77c1.75-.51,4.33-.78,4.95-2.81a6.2,6.2,0,0,0-.1-2.64,24.54,24.54,0,0,1-.22-2.71c0-1.92.26-3.83.25-5.76,0-4-.87-7.85-.76-11.8A52.56,52.56,0,0,1,61,48.74a35.24,35.24,0,0,0,.07-6c-.15-3.2-5.15-3.22-5,0a37.37,37.37,0,0,1-.44,8,33.77,33.77,0,0,0,0,8.87,51,51,0,0,1,.4,8.47,40.66,40.66,0,0,0-.17,4.12c0,.68.1,1.36.18,2q.06.56.15,1.11c0,.23.06.45.09.67,0,.38.06.3.07-.24l.64-1.1-.18.16,1.11-.64C55,75.27,51.83,76,48.84,76.85L52,79.26q-.3-8.87-.38-17.74c0-3.21-5-3.22-5,0Z"/><path class="cls-4" d="M61.71,43.66c.06-.1.55-.81.24-.46a5.73,5.73,0,0,1,.67-.63l-4.17-2.43c.08-.23.09-.17,0,0s-.36.54-.17.3-.14.13-.17.16-.28.25-.42.37l4.17,2.43c0,.07-.32.69-.21.43,0-.07.37-.27.09-.09s.15-.08.21-.12l.33-.19a8.09,8.09,0,0,0,1.89-1.39,13.9,13.9,0,0,0,.91-1.12s.4-.53.22-.3.14-.16.17-.2a7.4,7.4,0,0,1,.75-.73c-.32.28.08-.06.15-.11l.47-.34a15.6,15.6,0,0,0,3.05-3,18.11,18.11,0,0,1,1.28-1.48,3.83,3.83,0,0,1,.29-.28c.19-.17.32-.24,0-.06a5.77,5.77,0,0,1,.87-.5l-3.42-3.42-.21.36c.11-.19.18-.19,0,0l-.39.35c-.26.25.3-.2,0,0a13.47,13.47,0,0,0-1.79,1.4,33,33,0,0,0-2.86,3.49l3.93.5a1.29,1.29,0,0,1,.1,1.25c-.08.16,0,.12.07-.11s.19-.28.29-.41l.9-1.28c.27-.37.54-.76.82-1.13.11-.14.1-.13,0,0l.16-.17c.54-.51-.13.12-.11,0s2.07-.47,2.28-.56a12.31,12.31,0,0,0,1.46-.71c.2-.11.45-.09.07-.06.49,0-.25,0-.36-.06a2.5,2.5,0,1,0,1.33-4.82c-1.63-.36-2.84.26-4.23,1,.29-.1.28-.1,0,0l-.47.11c-.31.06-.63.1-.95.17A5.14,5.14,0,0,0,66.75,31a17.44,17.44,0,0,0-2.68,3.42c-1,1.44-1.8,3.08-.79,4.79.75,1.25,2.9,1.8,3.93.5a34,34,0,0,1,3-3.64c.16-.16.18-.17,0,0,.11-.09.23-.17.35-.25.37-.28.75-.56,1.11-.85a5.89,5.89,0,0,0,1.56-1.84,2.57,2.57,0,0,0-.4-3,2.62,2.62,0,0,0-3-.39,9.9,9.9,0,0,0-3.36,2.94c-.44.54-.86,1.09-1.34,1.59a9,9,0,0,1-.78.73c.27-.23,0,0-.15.1l-.47.35a10.06,10.06,0,0,0-2,1.81l-.53.69s-.48.61-.17.23c-.1.12-.19.24-.3.35s-.48.48-.23.26-.17.1-.23.14-.27.16-.41.24-.54.32-.8.5a5.32,5.32,0,0,0-2,2.51,2.5,2.5,0,0,0,1.15,2.82,2.64,2.64,0,0,0,3-.39,6.69,6.69,0,0,0,2.07-3.05,2.5,2.5,0,0,0-1.15-2.82,2.65,2.65,0,0,0-3,.39,6.38,6.38,0,0,0-1.69,2.1,2.5,2.5,0,1,0,4.31,2.52Z"/><path class="cls-4" d="M73.48,33.29a100.24,100.24,0,0,0,9.82,9.4c2,1.66,3.62,3.06,6.38,2.29A34.93,34.93,0,0,0,96,42.35a2.53,2.53,0,0,0,.51-3.93,50.67,50.67,0,0,0-4-4.16,27,27,0,0,0-2.22-1.78c-.25-.18-1.29-.7-1.42-1l-3.67,2.82.62.33a2.51,2.51,0,0,0,3-3.93A59.27,59.27,0,0,0,84,26.1c-.86-.71-1.73-1.4-2.63-2.06-1.08-.79.22.66-.53-.63-.26-.44-.63-.7-.87-1.14L75.6,24.79a4.6,4.6,0,0,0,3.83,2.58,2.53,2.53,0,0,0,2.41-1.84,2.64,2.64,0,0,0-1.15-2.82,35.17,35.17,0,0,1-5.52-5.32,2.51,2.51,0,0,0-3.54,0C68,21.53,63.84,25.2,59.88,29q-6.32,6.09-12.7,12.1c-2.35,2.21,1.2,5.74,3.54,3.54q6.39-6,12.7-12.1c4-3.8,8.14-7.47,11.75-11.61H71.63A41.06,41.06,0,0,0,78.16,27l1.27-4.66c.65,0,.85.5.49-.1-1.65-2.77-5.87-.3-4.32,2.52a7,7,0,0,0,1.26,1.65l-.64-1.1c.33,2,2.92,3.23,4.37,4.44a58.58,58.58,0,0,1,4.76,4.43l3-3.93L87.76,30c-1.75-.92-4.51.65-3.67,2.83s2.55,3,4.26,4.44A41.74,41.74,0,0,1,93,42L93.52,38a31.62,31.62,0,0,1-5,2.06c-.21.07-.43.14-.64.19.41.09.52.1.32,0a8,8,0,0,1-1.06-.86c-.7-.58-1.39-1.16-2.07-1.76A101,101,0,0,1,77,29.75c-2.18-2.38-5.7,1.17-3.53,3.54Z"/><path class="cls-4" d="M47,43.6a14.69,14.69,0,0,0-.46,4.89,9.48,9.48,0,0,1-.08,2.2A8.69,8.69,0,0,0,46.6,53a36.69,36.69,0,0,1,.4,8.7,2.53,2.53,0,0,0,2.5,2.5,2.55,2.55,0,0,0,2.5-2.5,37.24,37.24,0,0,0-.42-9.13A5.19,5.19,0,0,1,51.45,51a14.68,14.68,0,0,0,.16-2,16.33,16.33,0,0,1-.13-2.1,12.05,12.05,0,0,1,.37-1.94A2.5,2.5,0,1,0,47,43.6Z"/><path class="cls-4" d="M54.21,77.28l3-3.93a2.5,2.5,0,0,0-.89-3.42,7.35,7.35,0,0,0-6-.42l2.43,4.18a12.41,12.41,0,0,1,1.93-1.23,5.53,5.53,0,0,0,2.19-2.74,2.49,2.49,0,0,0-1.15-2.82,14.93,14.93,0,0,1-2.42-1.4l.9.89-.15-.27.25,1.93.09-.35-.64,1.1c.35-.36.83-.26,1.29-.2,2.77.35,3.45-4.53.66-4.91a20.07,20.07,0,0,0-3.46-.25l2.5,2.5a2,2,0,0,1,.9-1.4,5.26,5.26,0,0,0,1.74-2.47,3,3,0,0,0-2.25-3.84l-.7-.09c-.51-.16-.46-.11.15.14l.34,1.27c.06.58-.85,1.11.12.45a5.15,5.15,0,0,0,1-.76,4.37,4.37,0,0,0,1.13-3.45,4.92,4.92,0,0,0-1.35-2.91,7.11,7.11,0,0,0-1.19-1c-.77-.52-.36-.41-.28.08V53.3c-.84.66-.95.89-.32.68a4,4,0,0,0,.66-.17,4.69,4.69,0,0,0,1.19-.58,3.35,3.35,0,0,0,1.47-3.4,4.79,4.79,0,0,0-1.89-2.76c-.44-.37-.9-.72-1.35-1.07-.21-.16-1.36-1.28-.84-.49l.35,1.26v-.28l-.34,1.26.18-.25-.9.9A1.78,1.78,0,0,1,53.66,48a1.63,1.63,0,0,1,.44,0c.54.09.39.2.3.09l-.73-1.76,0,.28L54,45.34l.05,0,1.1-.64c.07,0,.13.11,0,0l.64,1.1s-.32.41,0,0c.18-.19.33-.42.51-.62l1.59-1.74C59,42.23,60.09,41.1,61.19,40c2.26-2.3-1.27-5.84-3.53-3.53-1.32,1.35-2.62,2.71-3.89,4.11s-2.6,2.64-2.94,4.47c-.73,4,5.58,6.65,7.53,2.84,1.07-2.08-.52-3.85-2.41-4.53a6.81,6.81,0,0,0-5,.24c-1.82.81-3.08,2.76-1.88,4.66.84,1.33,3,1.8,3.64,3.19l-.34-1.26h0l.64-1.1c-.2.24-1.46.41-1.9.67a3.54,3.54,0,0,0-1.71,2.91,3.46,3.46,0,0,0,1.33,2.66,11.05,11.05,0,0,0,1.47,1.09c-.59.17,1-1,0-.54a5.78,5.78,0,0,0-1,.71,3.61,3.61,0,0,0-1.35,2.64,3.68,3.68,0,0,0,1.66,3.08,4.39,4.39,0,0,0,1.21.59,3.38,3.38,0,0,0,.69.14c.8.13.89.13.25,0l-1.15-1.5c-.24-.72.41-1.27-.44-.51a8.27,8.27,0,0,0-1.25,1.39,6.89,6.89,0,0,0-1.12,3.55,2.51,2.51,0,0,0,2.5,2.5,12.65,12.65,0,0,1,2.13.07L55,63.6c-2-.26-4.79.67-5.47,2.77-.83,2.57,1.71,3.9,3.63,4.85l-1.15-2.83c.25-.63.17-.3-.14-.1s-.52.29-.78.44a8.1,8.1,0,0,0-1.92,1.42c-1.57,1.67,0,5.15,2.44,4.18a2.54,2.54,0,0,1,2.17-.09l-.89-3.42-3,3.94a2.51,2.51,0,0,0,.9,3.42,2.55,2.55,0,0,0,3.42-.9Z"/><path class="cls-4" d="M60.92,39.31a11.42,11.42,0,0,0,3.62-2.85A29.92,29.92,0,0,1,67.26,33c1.14-1,2.54-1.61,3.62-2.74.6-.63,1.17-1.28,1.76-1.92.34-.37.67-.74,1-1.1l.33-.37c.61-.51.26-.6-1-.26l-.9-.9c.67-1,.73-1.51.18-1.51l-.3.15a3.81,3.81,0,0,0-1.18.66,3.91,3.91,0,0,0-1.62,2.39,2.53,2.53,0,0,0,2.41,3.17,15,15,0,0,0,2.4-.28,8.15,8.15,0,0,0,.85-.22s1.25-.35.61-.3l-1.26-.34a11.61,11.61,0,0,1,3.64,3.27c1.1,1.31,2.11,2.69,3.2,4a23.37,23.37,0,0,0,4.1,3.85c1.75,1.3,4.4,3,6,.36s-2.7-5.3-4.32-2.52l-.09.16,2.16-1.23c.5.06.5,0,0-.27L88,36.49a13.66,13.66,0,0,1-1.12-.89,19.77,19.77,0,0,1-2-2c-1.16-1.35-2.2-2.79-3.34-4.15a20.67,20.67,0,0,0-4-3.79,3.65,3.65,0,0,0-3.07-.79,13.78,13.78,0,0,1-3,.69l2.41,3.16c-.06.27-.36.22,0,.15a2.5,2.5,0,0,0,.62-.29A4.78,4.78,0,0,0,76,27.48a3.58,3.58,0,0,0,.45-4.21,3.39,3.39,0,0,0-3.86-1.4c-1.49.42-2.48,1.81-3.47,2.9a19.77,19.77,0,0,1-2.66,2.75,19.07,19.07,0,0,0-3.13,2.32c-1.69,1.84-2.59,4-4.93,5.15-2.87,1.45-.34,5.76,2.53,4.32Z"/><path class="cls-4" d="M87.24,45.31c3.22,0,3.22-5,0-5s-3.22,5,0,5Z"/><path class="cls-4" d="M96.78,42.37l1.7-.54a1.1,1.1,0,0,0,.44-.26l.15-.2a.65.65,0,0,0,.12-.37.42.42,0,0,0,0-.27.45.45,0,0,0-.07-.25.38.38,0,0,0-.13-.22.7.7,0,0,0-.28-.26c-.53-.36-1.06-.74-1.58-1.12a.81.81,0,0,0-.37-.12.78.78,0,0,0-.4,0,1,1,0,0,0-.59.46,1,1,0,0,0-.11.77l.11.24a.93.93,0,0,0,.35.36c.52.38,1,.76,1.58,1.12l.24-1.83-1.7.54a1,1,0,0,0-.59.46,1,1,0,0,0-.1.77,1,1,0,0,0,.45.6,1.06,1.06,0,0,0,.78.1Z"/><path class="cls-4" d="M48.8,80.11l-.4,0L48,80H47.9a2,2,0,0,0-.34,0l-.07,0a1.51,1.51,0,0,0-.29.13,1.39,1.39,0,0,0-.44.43v0a2.72,2.72,0,0,0-.11.25,1.32,1.32,0,0,0,0,.33h2v-.94a1,1,0,0,0-.3-.71.69.69,0,0,0-.32-.21.73.73,0,0,0-.38-.08,1,1,0,0,0-.71.29,1,1,0,0,0-.29.71v.94a1,1,0,0,0,.29.71,1,1,0,0,0,.71.29,1,1,0,0,0,.7-.29l.16-.2a1,1,0,0,0,.14-.51h0l0,.26s0,0,0,0l-.1.23,0,0-.16.2,0,0-.2.16.07,0L48,82l.11,0-.26,0a2.38,2.38,0,0,1,.46,0l.47.06a1,1,0,0,0,1-1,1,1,0,0,0-.29-.7l-.2-.16a1,1,0,0,0-.51-.14Z"/><path class="cls-5" d="M72.15,86c10.3,0,10.31-16,0-16s-10.31,16,0,16Z"/><path class="cls-5" d="M72.16,86.06c6.91-.25,13.47-4,14.35-11.58.44-3.82-.19-8-.2-11.82l0-14c0-10.29-16-10.31-16,0l0,14.9c0,1.77-.59,4.91.13,6.52-.15,2.36.46,2.29,1.85-.21a8.89,8.89,0,0,0-2.46,2.19L73.36,70a3.22,3.22,0,0,1-1.2.06c-10.27.36-10.32,16.37,0,16Z"/><path class="cls-5" d="M77,73.51a4.08,4.08,0,0,1,.13-2.58c1.78-8.78-9.61-14.05-14.62-6.17l-.89,1.41,14.91,4c.16-3.47.29-6.94.36-10.41,0-3-.51-6.54-.09-9.48l-2.06,3.53a2.35,2.35,0,0,1,1.69-1.06c7.16-2.06,7.2-10.64,1.91-14.62l-1-.73c-3.45-2.59-8.94-.55-10.94,2.87-2.4,4.1-.6,8.35,2.87,10.95l1,.73,1.91-14.63c-6,1.74-10.78,5.48-11.25,12-.5,6.88-.06,13.91-.39,20.82-.4,8.28,10.86,10.41,14.9,4l.9-1.41L61.73,66.68a24.12,24.12,0,0,0-.14,11.08C64,87.76,79.46,83.53,77,73.51Z"/><path class="cls-5" d="M73.17,39.12l.2-.14c.17-.12.33-.25.49-.38l.1-.08a3.73,3.73,0,0,0,.34-.35,1.46,1.46,0,0,0,.42-.65,1.53,1.53,0,0,0,.17-.77,1.58,1.58,0,0,0-.17-.77,1.49,1.49,0,0,0-.42-.64L73.9,35a2.1,2.1,0,0,0-1-.28l-.53.08a2,2,0,0,0-.89.51,3.12,3.12,0,0,1-.49.47l.41-.31-.24.17a2.22,2.22,0,0,0-.92,1.19,1.56,1.56,0,0,0,0,.8,1.51,1.51,0,0,0,.24.74l.31.41a2,2,0,0,0,.89.51l.53.07a2,2,0,0,0,1-.27Z"/><path class="cls-5" d="M74.61,37.88l.25-.21a1.44,1.44,0,0,0,.41-.65,1.46,1.46,0,0,0,.18-.77,1.48,1.48,0,0,0-.18-.77,1.41,1.41,0,0,0-.41-.64l-.4-.31a1.93,1.93,0,0,0-1-.28l-.54.07a2.08,2.08,0,0,0-.88.52l-.24.21a1.43,1.43,0,0,0-.42.64,1.58,1.58,0,0,0-.17.77,1.55,1.55,0,0,0,.17.77,1.46,1.46,0,0,0,.42.65l.4.31a2,2,0,0,0,1,.27l.53-.07a2,2,0,0,0,.88-.51Z"/><path class="cls-5" d="M75.22,37.16,75.3,37H71.85a3.5,3.5,0,0,0,.56.82,1.46,1.46,0,0,0,.16.19,1.45,1.45,0,0,1,.18.17l-.32-.4a.1.1,0,0,1,0,0,1.48,1.48,0,0,0,.52.56,1.45,1.45,0,0,0,.68.36,1.42,1.42,0,0,0,.79,0,1.45,1.45,0,0,0,.75-.24l.4-.31a2.08,2.08,0,0,0,.52-.88l.07-.54a2,2,0,0,0-.27-1,2.56,2.56,0,0,0-.2-.26,2.19,2.19,0,0,0-.2-.25l-.11-.1-.2-.22.32.4A1.58,1.58,0,0,1,75.3,35a2.07,2.07,0,0,0-.72-.72,2,2,0,0,0-1-.27,2,2,0,0,0-1,.27,2,2,0,0,0-.71.72l-.08.12a2.22,2.22,0,0,0-.2,1.55,1.58,1.58,0,0,0,.35.68,1.56,1.56,0,0,0,.57.51l.47.2a2,2,0,0,0,1.07,0l.47-.2a2,2,0,0,0,.72-.72Z"/><path class="cls-5" d="M61.35,45.1l-.15.2a3.13,3.13,0,0,0-.22.45,2.13,2.13,0,0,0-.14.35s0,0,0,.06v0c0,.17,0,.38-.07.55a.53.53,0,0,0,0,.13v0a5,5,0,0,0,.07.54s0,.05,0,.07a1.65,1.65,0,0,0,.36.68,1.55,1.55,0,0,0,.56.52,1.53,1.53,0,0,0,.75.23,1.52,1.52,0,0,0,.79,0l.48-.2a2.07,2.07,0,0,0,.72-.72l.2-.48a1.91,1.91,0,0,0,0-1.06s0-.05,0-.08l.07.53a.48.48,0,0,1,0-.17l-.07.54a.65.65,0,0,1,.06-.21l-.2.47a2.08,2.08,0,0,1,.26-.42,1.39,1.39,0,0,0,.24-.74,1.46,1.46,0,0,0,0-.8,1.5,1.5,0,0,0-.36-.68,1.45,1.45,0,0,0-.56-.51l-.47-.2a2,2,0,0,0-1.07,0l-.48.2a2,2,0,0,0-.71.72Z"/><path class="cls-5" d="M61.08,73.41a5.12,5.12,0,0,0-.56,2.66,18.75,18.75,0,0,0,.39,2.38,2,2,0,0,0,3.65.48l.2-.48a1.91,1.91,0,0,0,0-1.06c-.09-.49-.2-1-.27-1.48l.07.53a4.44,4.44,0,0,1,0-1.15l-.07.53a3,3,0,0,1,.18-.71l-.2.48c0-.06,0-.11.08-.16a2.1,2.1,0,0,0,.2-1.55,2,2,0,0,0-2.46-1.39,2,2,0,0,0-1.19.92Z"/><path class="cls-5" d="M84.5,79.6c2.57,0,2.58-4,0-4s-2.58,4,0,4Z"/><path class="cls-5" d="M76.75,82.32a7,7,0,0,1-.36.66c-.22.37.27-.22-.06,0,.2-.17.16-.11,0,0a14.56,14.56,0,0,0-1.38.8A11,11,0,0,0,73.48,85c-.19.2-.37.4-.55.62s-.63.74-.21.28c-.25.27.3-.14,0,0l1-.27.35,0,.89.52c-.74-.6-1.39-1.32-2.1-1.95s-1.55-1.33-2.33-2a2,2,0,1,0-2.83,2.83c1,.82,2,1.64,2.92,2.51.45.41.87.84,1.32,1.25a2.31,2.31,0,0,0,3,.38,3.88,3.88,0,0,0,1-1c-.3.42,0,0,0,0l.31-.33a6.64,6.64,0,0,1,.55-.51c.37-.34-.34.22.07-.06L77.3,87c.51-.33,1.06-.55,1.54-.92a5,5,0,0,0,1.37-1.77,2,2,0,1,0-3.46-2Z"/><path class="cls-5" d="M73.49,90.65c2.58,0,2.58-4,0-4s-2.57,4,0,4Z"/></g><g id="Layer_7" data-name="Layer 7"><circle class="cls-6" cx="107.36" cy="16.89" r="2.17"/><circle class="cls-6" cx="24.08" cy="105.55" r="2.17"/><circle class="cls-6" cx="130.89" cy="75.95" r="2.17"/><circle class="cls-6" cx="20.15" cy="35.78" r="2.17"/><path class="cls-6" d="M104.41,107.5a2.18,2.18,0,1,0,2.18-2.18A2.18,2.18,0,0,0,104.41,107.5Z"/><circle class="cls-6" cx="15.33" cy="62.07" r="2.17"/><circle class="cls-6" cx="59.85" cy="2.67" r="2.17"/><circle class="cls-6" cx="2.67" cy="93.26" r="2.17"/><circle class="cls-6" cx="99.88" cy="4.11" r="2.17"/><circle class="cls-6" cx="126.54" cy="105.8" r="2.17"/><polygon class="cls-7" points="46.68 41.36 46.68 82.67 73.52 108.16 100.01 82.9 100.01 41.36 73.35 15.76 46.68 41.36"/><polygon class="cls-7" points="60.6 45.62 73.35 33.5 86.43 45.62 86.43 78.52 73.52 90.98 60.6 78.74 60.6 45.62"/><polyline class="cls-7" points="100.01 41.36 86.43 45.62 73.35 33.5 73.35 15.76 73.35 33.5 60.6 45.62 46.68 41.36"/><line class="cls-7" x1="86.43" y1="78.52" x2="100.01" y2="82.9"/><line class="cls-7" x1="73.52" y1="108.16" x2="73.52" y2="90.98"/><line class="cls-7" x1="46.68" y1="82.67" x2="60.6" y2="78.74"/></g></g></svg>