<svg xmlns="http://www.w3.org/2000/svg" viewBox="0 0 102.97 133.77"><defs><style>.cls-1,.cls-4{fill:#d231ff;}.cls-1,.cls-2,.cls-3,.cls-5{stroke:#231f20;stroke-miterlimit:10;}.cls-2{fill:#ad4cff;}.cls-3{fill:#fff;}.cls-5{fill:#ed1eff;}</style></defs><g id="Layer_2" data-name="Layer 2"><g id="Layer_4" data-name="Layer 4"><polyline class="cls-1" points="0.5 13.6 0.5 116.08 78.05 116.08 78.05 13.6"/><polyline class="cls-2" points="53.13 108.78 53.13 132.12 57.74 125.24 62.46 132.12 62.46 108.78"/><circle class="cls-2" cx="57.8" cy="101.05" r="9.88"/><line class="cls-1" x1="10.88" y1="32.64" x2="67.67" y2="32.64"/><line class="cls-1" x1="10.88" y1="43.34" x2="67.67" y2="43.34"/><line class="cls-1" x1="10.88" y1="54.03" x2="67.67" y2="54.03"/><line class="cls-1" x1="10.88" y1="63.3" x2="67.67" y2="63.3"/><line class="cls-1" x1="10.88" y1="74" x2="67.67" y2="74"/><line class="cls-3" x1="10.88" y1="84.7" x2="67.67" y2="84.7"/><line class="cls-3" x1="10.88" y1="94.68" x2="37.6" y2="94.68"/></g><g id="Layer_10" data-name="Layer 10"><path class="cls-4" d="M3.28,12.55"/><path class="cls-4" d="M3.28,15.05c3.22,0,3.23-5,0-5s-3.22,5,0,5Z"/><path class="cls-4" d="M3.26,12.53"/><path class="cls-4" d="M3.26,15c3.22,0,3.22-5,0-5s-3.22,5,0,5Z"/><path class="cls-4" d="M3.17,12.53"/><path class="cls-4" d="M3.17,15c3.22,0,3.23-5,0-5s-3.22,5,0,5Z"/><path class="cls-4" d="M6.24,14l-1-3a1,1,0,0,1-.07-.41,1,1,0,0,1,.48-.61C6.61,9.27,7.54,8.62,8.48,8a8.89,8.89,0,0,0,3.24-3,5.51,5.51,0,0,1,.47-.86A3.1,3.1,0,0,1,15,3.3a3.29,3.29,0,0,1,2,.61c.36.3.68.78,1.14.73l-.55-.72a10,10,0,0,1,4.83,4.29,17.86,17.86,0,0,1,1.77,5.54c-.39-.95-1-1.8-1.39-2.74a3.35,3.35,0,0,1,0-3l.34.84c-1.37.24-2.69-.5-4-1a10,10,0,0,0-11.29,3.5,14.59,14.59,0,0,0,2.56.23c2.43.06,4.95.12,7.2-.81a1,1,0,0,1,.53-.12,1,1,0,0,1,.55.37l.95,1a.42.42,0,0,1,.14.29c0,.15-.17.23-.31.28a5.14,5.14,0,0,1-2.55.18,6,6,0,0,0-2.28-.27"/><path class="cls-4" d="M8.65,13.31l-.53-1.67L7.91,11l-.16-.5c-.1-.39-.11-.22,0,.5l-.64,1.1a18.41,18.41,0,0,1,3.16-2.25,11.66,11.66,0,0,0,3.34-3.07A5.21,5.21,0,0,0,14,6c.19-.42.15-.33,0-.15s-.2.08.09,0h0a5.42,5.42,0,0,1,.9,0c.27,0,.29,0,.53.1-.18-.11-.13-.09,0,.11a3.55,3.55,0,0,0,2.56,1.13c1.77.12,3.28-2.28,2.16-3.76l-.55-.72L16.27,6.08a11.75,11.75,0,0,1,1.28.64c.29.18.65.43.77.53A7.7,7.7,0,0,1,19.91,9a14.87,14.87,0,0,1,1.8,5.44l4.57-1.93c-.33-.79-.82-1.5-1.16-2.28a2.5,2.5,0,0,1-.24-.76c0,.16.14-.41,0-.14l-4.57-.6.34.85,2.41-3.17c-1.3.16-2.62-.7-4-1.07a13.06,13.06,0,0,0-5.46-.24,12.66,12.66,0,0,0-8,5.09A2.5,2.5,0,0,0,7.1,13.84a27.57,27.57,0,0,0,6.73.3,17.13,17.13,0,0,0,3.27-.51l.63-.19c1.35-.48-.94-.22-.89-.58,0,.21.9,1,1.05,1.15l-.64-1.1,0,.15.25-1.93-.11.18.9-.89c.24-.12-.48,0-.53,0a2.74,2.74,0,0,1-.79-.09,8.41,8.41,0,0,0-3.12-.17,2.52,2.52,0,0,0-1.74,3.08A2.55,2.55,0,0,0,15.22,15c-.08,0,.54.19.63.21a9.74,9.74,0,0,0,1.79.23,6.3,6.3,0,0,0,3.11-.66A2.8,2.8,0,0,0,21.82,11a7.34,7.34,0,0,0-2.2-2.27C17.79,7.63,15.88,9,14,9.13A22.56,22.56,0,0,1,8.43,9l1.49,3.67A7.44,7.44,0,0,1,15.29,9.9a8.52,8.52,0,0,1,3.56.61,8.68,8.68,0,0,0,4.21.88c1.42-.17,3.09-1.48,2.41-3.16l-.34-.85a2.55,2.55,0,0,0-2.08-1.79,2.49,2.49,0,0,0-2.49,1.2,5.78,5.78,0,0,0-.38,4.45A40.58,40.58,0,0,0,22,15a2.48,2.48,0,0,0,3.12,1,2.54,2.54,0,0,0,1.45-2.95,18,18,0,0,0-2.47-6.87A12.67,12.67,0,0,0,18.8,1.76a2.6,2.6,0,0,0-3,.39,2.5,2.5,0,0,0-.39,3l.54.72,2.16-3.76c.29,0,1.34.7.72.08a6.48,6.48,0,0,0-.71-.56A4.82,4.82,0,0,0,16.54,1,8.57,8.57,0,0,0,13.35.88,4.82,4.82,0,0,0,10.5,2.25C9.77,3,9.54,4,8.88,4.61A49.36,49.36,0,0,1,4.44,7.78a3.43,3.43,0,0,0-1.59,3.74c.26,1.05.65,2.09,1,3.12a2.5,2.5,0,0,0,4.82-1.33Z"/></g><g id="Layer_9" data-name="Layer 9"><path class="cls-5" d="M13.6.5l.74,0A13.11,13.11,0,0,1,26.71,13.6h75.76A13.11,13.11,0,0,0,89.37.5H12.73"/><path class="cls-1" d="M.5,13.6A13.11,13.11,0,0,1,13.6.5"/></g></g></svg>